<?xml version="1.0" encoding="UTF-8" standalone="no"?>
<!-- Created with Inkscape (http://www.inkscape.org/) -->

<svg
   xmlns:dc="http://purl.org/dc/elements/1.1/"
   xmlns:cc="http://creativecommons.org/ns#"
   xmlns:rdf="http://www.w3.org/1999/02/22-rdf-syntax-ns#"
   xmlns:svg="http://www.w3.org/2000/svg"
   xmlns="http://www.w3.org/2000/svg"
   xmlns:sodipodi="http://sodipodi.sourceforge.net/DTD/sodipodi-0.dtd"
   xmlns:inkscape="http://www.inkscape.org/namespaces/inkscape"
   width="210mm"
   height="297mm"
   viewBox="0 0 210 297"
   version="1.1"
   id="svg8"
   inkscape:version="0.92.5 (2060ec1f9f, 2020-04-08)"
   sodipodi:docname="deploy.svg"
   inkscape:export-filename="/home/nicolas/Documents/Projects/Portfolio/app/Icons/deploy_img.png"
   inkscape:export-xdpi="123.85523"
   inkscape:export-ydpi="123.85523">
  <defs
     id="defs2" />
  <sodipodi:namedview
     id="base"
     pagecolor="#ffffff"
     bordercolor="#666666"
     borderopacity="1.0"
     inkscape:pageopacity="0.0"
     inkscape:pageshadow="2"
     inkscape:zoom="1.4142136"
     inkscape:cx="297.17467"
     inkscape:cy="732.98192"
     inkscape:document-units="mm"
     inkscape:current-layer="g223"
     showgrid="false"
     inkscape:object-paths="true"
     inkscape:snap-smooth-nodes="true"
     inkscape:snap-intersection-paths="true"
     inkscape:snap-bbox="true"
     inkscape:bbox-nodes="true"
     inkscape:snap-bbox-edge-midpoints="true"
     inkscape:snap-bbox-midpoints="true"
     inkscape:bbox-paths="true"
     inkscape:window-width="1920"
     inkscape:window-height="1016"
     inkscape:window-x="1920"
     inkscape:window-y="27"
     inkscape:window-maximized="1" />
  <metadata
     id="metadata5">
    <rdf:RDF>
      <cc:Work
         rdf:about="">
        <dc:format>image/svg+xml</dc:format>
        <dc:type
           rdf:resource="http://purl.org/dc/dcmitype/StillImage" />
        <dc:title></dc:title>
      </cc:Work>
    </rdf:RDF>
  </metadata>
  <g
     inkscape:groupmode="layer"
     id="layer2"
     inkscape:label="Layer 2"
     style="display:inline;opacity:1">
    <path
       style="opacity:1;fill:#808080;fill-opacity:1;fill-rule:evenodd;stroke:#000000;stroke-width:1.02047241;stroke-linejoin:round;stroke-miterlimit:4;stroke-dasharray:none;stroke-opacity:1"
       d=""
       id="path194"
       inkscape:connector-curvature="0"
       transform="scale(0.26458333)" />
    <g
       id="g223"
       transform="translate(-1.984375,0.66145833)">
      <path
         inkscape:connector-curvature="0"
         id="path188"
         d="M 149.92386,71.589873 93.183368,117.09737"
         style="fill:none;stroke:#000000;stroke-width:0.26458332px;stroke-linecap:butt;stroke-linejoin:miter;stroke-opacity:1" />
      <path
         sodipodi:nodetypes="cccc"
         inkscape:connector-curvature="0"
         id="path28"
         d="M 82.304315,108.57887 C 85.619103,102.26337 89.61669,96.220982 95.438987,90.908481 109.91607,77.43258 125.7842,68.825322 142.7805,64.166665 l 22.57361,-4.446952"
         style="fill:none;stroke:#000000;stroke-width:0.26458332px;stroke-linecap:butt;stroke-linejoin:miter;stroke-opacity:1" />
      <path
         sodipodi:nodetypes="ccccc"
         inkscape:connector-curvature="0"
         id="path32"
         d="m 165.35411,59.719712 -2.7593,7.844076 -3.18335,10.304515 c -7.04029,13.075996 -16.95109,24.294597 -30.04911,33.450887 -8.40726,5.66787 -17.19963,10.46925 -27.0253,12.94569"
         style="fill:none;stroke:#000000;stroke-width:0.26458332px;stroke-linecap:butt;stroke-linejoin:miter;stroke-opacity:1" />
      <path
         sodipodi:nodetypes="cc"
         inkscape:connector-curvature="0"
         id="path34"
         d="m 142.7805,64.166665 c 4.65882,5.562649 9.84674,10.530061 16.63096,13.701638"
         style="fill:none;stroke:#000000;stroke-width:0.26458332px;stroke-linecap:butt;stroke-linejoin:miter;stroke-opacity:1" />
      <path
         sodipodi:open="true"
         inkscape:transform-center-y="-3.0238089"
         inkscape:transform-center-x="1.497354"
         d="m 145.6813,83.053337 a 10.781697,7.9336319 0 0 1 -10.77039,7.941898 10.781697,7.9336319 0 0 1 -10.79299,-7.925267 10.781697,7.9336319 0 0 1 10.77027,-7.941988 10.781697,7.9336319 0 0 1 10.79311,7.925176"
         sodipodi:end="6.28212"
         sodipodi:start="6.2821429"
         sodipodi:ry="7.9336319"
         sodipodi:rx="10.781697"
         sodipodi:cy="83.061607"
         sodipodi:cx="134.89961"
         sodipodi:type="arc"
         id="path42"
         style="opacity:1;fill:#ffffff;fill-opacity:1;fill-rule:evenodd;stroke:#000000;stroke-width:0.26999998;stroke-linejoin:round;stroke-miterlimit:4;stroke-dasharray:none;stroke-opacity:1" />
      <path
         inkscape:connector-curvature="0"
         id="path44"
         d="m 103.95652,123.8333 9.53083,2.13247 0.0472,15.9695 12.42596,-11.85901 4.48847,-16.44196 -1.881,-1.78301"
         style="fill:none;stroke:#000000;stroke-width:0.26458332px;stroke-linecap:butt;stroke-linejoin:miter;stroke-opacity:1" />
      <path
         inkscape:connector-curvature="0"
         id="path46"
         d="m 98.509525,88.141076 -2.267339,-1.36671 -22.358868,3.576174 -14.098466,9.437955 20.095327,0.183747 3.267863,7.033438"
         style="fill:none;stroke:#000000;stroke-width:0.26458332px;stroke-linecap:butt;stroke-linejoin:miter;stroke-opacity:1" />
      <path
         inkscape:connector-curvature="0"
         id="path48"
         d="M 102.33705,124.26488 82.304315,108.57887"
         style="fill:none;stroke:#000000;stroke-width:0.26458332px;stroke-linecap:butt;stroke-linejoin:miter;stroke-opacity:1" />
      <path
         inkscape:connector-curvature="0"
         id="path52"
         d="m 102.33705,124.26488 -2.03162,0.7087 -0.944939,1.53553 -19.843749,-15.33166 2.126114,-0.87407 0.661459,-1.72451"
         style="fill:none;stroke:#000000;stroke-width:0.26458332px;stroke-linecap:butt;stroke-linejoin:miter;stroke-opacity:1" />
      <path
         sodipodi:nodetypes="ccccccccccc"
         inkscape:connector-curvature="0"
         id="path54"
         d="m 79.516742,111.17745 c -4.73345,0.96304 -8.797946,3.09675 -12.832996,5.28199 -5.803347,4.85062 -10.876214,10.64482 -13.964832,16.38696 -1.749998,2.68222 -2.986794,5.59576 -4.409948,8.87 -1.053478,3.3186 -1.573866,6.63719 -1.737252,9.95579 3.103948,0.31781 6.033865,0.0265 8.886711,-0.53454 7.787437,-1.36012 15.023365,-3.76056 22.434429,-6.2498 4.611851,-2.09479 8.271753,-4.66556 12.176976,-7.11367 1.961905,-1.24629 3.619679,-2.64465 5.078122,-4.14268 1.002168,-1.45212 1.851053,-2.89042 2.739511,-4.34313 0.233362,-0.66877 1.554152,-2.91772 1.473026,-2.77926"
         style="fill:none;stroke:#000000;stroke-width:0.26458332px;stroke-linecap:butt;stroke-linejoin:miter;stroke-opacity:1" />
      <path
         sodipodi:nodetypes="ccccccccccc"
         inkscape:connector-curvature="0"
         id="path54-6"
         d="m 83.898037,114.56252 c -3.004347,0.50907 -8.014773,2.16132 -10.460625,3.45308 -3.517711,2.86739 -6.989514,6.0941 -8.861685,9.48849 -1.060764,1.58555 -1.810451,3.30785 -2.673098,5.24337 -0.638568,1.96174 -0.954003,3.92348 -1.053039,5.88522 1.881463,0.18788 3.657438,0.0156 5.386697,-0.31597 4.720369,-0.80403 9.106439,-2.22302 13.598672,-3.69448 2.795481,-1.23832 5.01394,-2.75798 7.381096,-4.20515 1.189214,-0.73673 2.194075,-1.56336 3.078112,-2.44889 0.607467,-0.8584 1.122023,-1.70863 1.660565,-2.56737 0.14145,-0.39534 1.669073,-3.44381 1.619895,-3.36198"
         style="display:inline;opacity:1;fill:none;stroke:#000000;stroke-width:0.26458332px;stroke-linecap:butt;stroke-linejoin:miter;stroke-opacity:1" />
      <path
         transform="scale(0.26458333)"
         inkscape:connector-curvature="0"
         id="path166"
         d="m 178.05674,572.84069 -1.44677,-0.0905 0.15193,-1.92475 c 0.85008,-10.76984 2.03961,-18.50008 4.12395,-26.79975 1.53147,-6.09814 2.27175,-8.25293 4.80972,-14 5.33263,-12.07535 8.34882,-18.14743 12.16657,-24.49331 1.20167,-1.99743 3.23083,-5.43169 4.50924,-7.63169 10.03166,-17.26334 25.55143,-35.61138 43.88469,-51.8821 5.47966,-4.86318 6.1248,-5.34179 10.04693,-7.45354 16.28932,-8.77048 28.16356,-13.75469 39.70051,-16.6643 l 4.25,-1.07184 0.89698,0.66089 c 0.49334,0.36349 3.95132,3.02121 7.6844,5.90604 l 6.78741,5.24515 -2.62136,0.54944 c -9.37959,1.96599 -24.81618,7.1071 -33.17641,11.0493 -2.07844,0.98008 -3.21763,1.75345 -5.94602,4.03661 -11.14649,9.32759 -19.42852,17.69269 -25.19708,25.44984 -5.48574,7.37682 -13.40601,22.09954 -15.76204,29.29951 -0.69889,2.13577 -1.89968,7.27153 -2.39656,10.25 -0.44545,2.67026 -1.13756,8.90147 -1.14164,10.27852 -0.003,0.88587 0.02,0.90663 1.15722,1.0625 1.80727,0.24772 9.25631,0.18696 12.12612,-0.0989 1.42394,-0.14184 4.53999,-0.59545 6.92456,-1.00802 14.00446,-2.42302 25.67863,-5.48009 45.91442,-12.02346 6.4176,-2.07517 7.43681,-2.48651 12.25,-4.94394 2.8875,-1.47424 6.7125,-3.56041 8.5,-4.63591 5.20264,-3.13034 15.36324,-9.49518 17.0389,-10.67357 2.44004,-1.71591 6.44795,-5.1146 7.88932,-6.6901 1.98804,-2.17304 6.46872,-9.39974 8.5378,-13.77026 1.00815,-2.12952 2.36112,-4.91972 3.00659,-6.20045 l 1.17359,-2.3286 1.10252,0.8286 c 4.38062,3.29226 19.60308,15.1067 19.61342,15.22234 0.007,0.079 -0.67444,1.3728 -1.51447,2.875 -0.84003,1.50219 -2.11601,3.91251 -2.83552,5.35626 -1.38388,2.77687 -6.17727,10.68692 -9.39421,15.50235 -1.41778,2.12228 -2.63368,3.55663 -4.63343,5.46591 -6.44278,6.15128 -10.29565,8.96986 -25.36571,18.55637 -16.74388,10.65127 -22.38565,13.95688 -31.5781,18.50211 -4.44757,2.19912 -5.93086,2.77407 -14.375,5.57207 -33.28948,11.0306 -52.31578,16.245 -73.4429,20.12794 -12.52194,2.30141 -17.2164,2.79454 -25.95045,2.72598 -3.31229,-0.026 -6.67339,-0.088 -7.46912,-0.13775 z"
         style="opacity:1;fill:#ffcc00;fill-opacity:1;fill-rule:evenodd;stroke:#000000;stroke-width:1.02047241;stroke-linejoin:round;stroke-miterlimit:4;stroke-dasharray:none;stroke-opacity:1" />
      <path
         transform="scale(0.26458333)"
         inkscape:connector-curvature="0"
         id="path168"
         d="m 230.74734,521.46321 c 0.45084,-5.44204 1.56448,-11.76944 2.9092,-16.52932 2.02919,-7.18266 10.06962,-22.44947 16.07966,-30.53135 5.6458,-7.59206 14.03433,-16.05496 24.89231,-25.11302 2.63652,-2.19946 3.89468,-3.05959 5.75,-3.93097 8.36496,-3.9287 23.24991,-8.89771 32.80826,-10.95232 1.61329,-0.34679 3.1509,-0.63052 3.41692,-0.63052 0.26602,0 8.4523,6.14693 18.19175,13.65985 9.73944,7.51291 17.7944,13.73611 17.89991,13.82933 0.33839,0.29898 -6.05055,12.97525 -8.42217,16.71039 -3.06707,4.83044 -3.66578,5.58457 -6.23379,7.85203 -3.42296,3.02236 -5.8717,4.76465 -12.52051,8.90839 -13.4664,8.39267 -20.46183,12.20271 -25.76537,14.03303 -4.13794,1.42806 -16.18686,5.22846 -20.875,6.58427 -10.46255,3.02577 -18.36706,4.9258 -27.25,6.55018 -6.96102,1.27292 -10.4273,1.62253 -16.08699,1.62253 h -4.96505 z"
         style="opacity:1;fill:#ff9900;fill-opacity:1;fill-rule:evenodd;stroke:#000000;stroke-width:1.02047241;stroke-linejoin:round;stroke-miterlimit:4;stroke-dasharray:none;stroke-opacity:1" />
      <path
         transform="scale(0.26458333)"
         inkscape:connector-curvature="0"
         id="path174"
         d="m 429.62851,505.3021 c 0,-16.37701 -0.0921,-29.77639 -0.20466,-29.77639 -0.30631,0 -33.59986,-7.47119 -33.68849,-7.55981 -0.042,-0.042 1.66116,-0.60924 3.7848,-1.26053 25.36306,-7.77851 53.05114,-21.4289 82.66511,-40.75441 l 3.68175,-2.40264 3.19325,3.03733 c 1.75628,1.67054 3.1788,3.17713 3.16114,3.34798 -0.0177,0.17085 -3.78369,14.04722 -8.36897,30.83638 l -8.33687,30.52574 -20.27922,19.3476 c -11.15356,10.64118 -21.47815,20.49229 -22.94352,21.89137 l -2.66432,2.54377 z"
         style="opacity:1;fill:#cc0000;fill-opacity:1;fill-rule:evenodd;stroke:#000000;stroke-width:1.02047241;stroke-linejoin:round;stroke-miterlimit:4;stroke-dasharray:none;stroke-opacity:1" />
      <path
         transform="scale(0.26458333)"
         inkscape:connector-curvature="0"
         id="path176"
         d="m 308.32137,390.20644 -5.93215,-12.80573 -5.81785,-0.15526 c -3.19982,-0.0854 -16.97772,-0.24051 -30.61756,-0.3447 -13.63984,-0.10418 -27.71303,-0.25931 -31.27376,-0.34473 l -6.47405,-0.15531 25.65608,-17.16356 25.65608,-17.16356 41.59033,-6.65465 c 22.87468,-3.66005 41.82764,-6.67283 42.11768,-6.69505 0.51809,-0.0397 7.95601,4.29357 7.83779,4.56624 -0.0333,0.0767 -1.18545,1.14324 -2.56045,2.37014 -5.05603,4.51146 -11.44901,10.47837 -14.80417,13.81751 -13.75236,13.68675 -26.32092,30.51335 -37.42976,50.11043 -1.07172,1.89063 -1.96377,3.43446 -1.98232,3.43073 -0.0186,-0.004 -2.70321,-5.76935 -5.96589,-12.8125 z"
         style="opacity:1;fill:#cc0000;fill-opacity:1;fill-rule:evenodd;stroke:#000000;stroke-width:1.02047241;stroke-linejoin:round;stroke-miterlimit:4;stroke-dasharray:none;stroke-opacity:1" />
      <path
         sodipodi:nodetypes="sscssscs"
         inkscape:connector-curvature="0"
         id="path178"
         d="m 157.97244,76.922243 c -4.85883,-2.606066 -9.25732,-6.242526 -13.67122,-11.302706 -0.63052,-0.722839 -1.10327,-1.327145 -1.05055,-1.342901 0.48696,-0.145552 22.06275,-4.599395 22.10552,-4.556617 0.0312,0.03124 -0.98206,2.20771 -1.75417,4.412681 -0.77211,2.204974 -2.03414,6.062578 -2.80452,8.572455 -0.77038,2.509875 -1.44114,4.635685 -1.49057,4.724024 -0.0637,0.11379 -0.45273,-0.034 -1.33449,-0.506936 z"
         style="opacity:1;fill:#cc0000;fill-opacity:1;fill-rule:evenodd;stroke:#000000;stroke-width:0.26999998;stroke-linejoin:round;stroke-miterlimit:4;stroke-dasharray:none;stroke-opacity:1" />
      <path
         transform="scale(0.26458333)"
         inkscape:connector-curvature="0"
         id="path184"
         d="m 338.49801,448.83295 c -20.22593,-15.62172 -36.77631,-28.43126 -36.77861,-28.46564 -0.002,-0.0344 1.30244,-0.59353 2.89942,-1.24257 1.59699,-0.64903 3.2448,-1.33109 3.66182,-1.51568 l 0.7582,-0.33561 1.1168,-2.95136 c 0.61423,-1.62325 1.15155,-2.95213 1.19404,-2.95307 0.12507,-0.003 74.06559,57.92479 74.09625,58.04956 0.0196,0.0799 -6.45187,2.44873 -6.68975,2.44873 -0.0126,0 -0.76463,1.20938 -1.67125,2.6875 -0.90662,1.47813 -1.68532,2.6861 -1.73045,2.68439 -0.0451,-0.002 -16.63054,-12.78452 -36.85647,-28.40625 z"
         style="opacity:1;fill:#000000;fill-opacity:1;fill-rule:evenodd;stroke:#000000;stroke-width:1.02047241;stroke-linejoin:round;stroke-miterlimit:4;stroke-dasharray:none;stroke-opacity:1" />
      <path
         inkscape:connector-curvature="0"
         id="path186"
         d="m 132.97016,90.892303 c -4.23461,-0.60898 -7.56542,-2.943801 -8.59403,-6.024193 -0.37974,-1.137203 -0.3288,-2.958309 0.1142,-4.082882 0.69032,-1.752378 2.25743,-3.301982 4.4237,-4.374268 2.03478,-1.0072 3.31487,-1.28302 5.95454,-1.28302 2.57548,0 3.86683,0.267326 5.81108,1.202983 4.05546,1.951657 5.85145,5.375806 4.62002,8.808231 -0.65037,1.812754 -2.53356,3.654259 -4.79477,4.688617 -2.01638,0.922365 -5.29869,1.386097 -7.53474,1.064532 z"
         style="opacity:1;fill:#6699ff;fill-opacity:1;fill-rule:evenodd;stroke:#000000;stroke-width:0.27000001;stroke-linejoin:round;stroke-miterlimit:4;stroke-dasharray:none;stroke-opacity:1" />
      <path
         inkscape:connector-curvature="0"
         id="path190"
         d="m 332.19043,426.07391 c -10.88945,-8.53975 -19.84152,-15.73019 -19.89351,-15.97875 -0.21314,-1.01916 8.9388,-16.82724 15.3061,-26.4381 12.00551,-18.12124 23.42236,-30.83596 43.83183,-48.81464 47.93315,-42.22423 102.80502,-72.67823 161.75068,-89.77194 l 6.18718,-1.79423 1.59099,1.86129 c 6.22489,7.28247 13.59344,15.05754 20.47668,21.6064 3.36505,3.20159 3.94029,3.8992 3.52766,4.27812 -1.80723,1.65954 -25.81077,20.71112 -26.09444,20.71112 -0.19435,0 -0.95706,-0.41322 -1.69489,-0.91827 -1.98461,-1.35844 -7.69598,-4.16472 -10.60039,-5.20849 -4.90387,-1.76233 -8.03751,-2.161 -16.90409,-2.15059 -5.13175,0.006 -8.97955,0.17639 -10.42983,0.46179 -6.10603,1.20162 -13.93521,4.60841 -18.68832,8.13204 -3.23749,2.40005 -7.34435,6.784 -8.98857,9.59503 -2.2596,3.8631 -2.895,6.49371 -2.90062,12.0088 -0.004,3.95945 0.12883,5.19479 0.77951,7.24784 1.63126,5.14707 5.96014,10.92113 10.91551,14.55962 l 2.22515,1.63382 -2.21295,1.80277 c -7.95315,6.47901 -127.92598,102.57895 -128.13051,102.63435 -0.1398,0.0379 -9.16373,-6.91822 -20.05317,-15.45798 z"
         style="opacity:1;fill:#bfbfbf;fill-opacity:1;fill-rule:evenodd;stroke:#000000;stroke-width:1.02047241;stroke-linejoin:round;stroke-miterlimit:4;stroke-dasharray:none;stroke-opacity:1"
         transform="scale(0.26458333)" />
      <path
         transform="scale(0.26458333)"
         inkscape:connector-curvature="0"
         id="path192"
         d="m 370.09363,455.72044 -16.78516,-13.14298 15.0736,-12.10366 c 8.29048,-6.65702 37.65836,-30.21781 65.26195,-52.35731 l 50.18834,-40.25366 2.49111,1.29956 c 3.45658,1.80323 9.02225,3.6722 13.52087,4.54034 4.37164,0.84364 13.32448,1.01769 17.78484,0.34576 14.95948,-2.25358 26.97854,-10.08978 31.63806,-20.62741 2.89095,-6.53796 2.43942,-15.26895 -1.10657,-21.39743 -1.40912,-2.43538 -4.19461,-5.84085 -6.24351,-7.63318 -1.57962,-1.38181 -1.74987,-1.65428 -1.29744,-2.07647 0.73658,-0.68735 25.17726,-20.18186 25.70249,-20.50097 0.26893,-0.16339 1.67549,0.77207 3.71231,2.46894 8.73011,7.27305 19.16061,14.14916 28.82355,19.00139 1.40979,0.70792 2.56326,1.36547 2.56326,1.46121 0,0.80522 -9.961,17.57093 -15.12038,25.44965 -13.17396,20.11753 -26.90836,37.12884 -43.92039,54.3994 -18.83194,19.11814 -37.28301,34.47816 -57.9854,48.27127 -27.69941,18.45493 -53.46596,31.72062 -78.33293,40.32905 -4.84114,1.6759 -18.13353,5.66948 -18.87053,5.66948 -0.17209,0 -7.86623,-5.91434 -17.09807,-13.14298 z"
         style="opacity:1;fill:#808080;fill-opacity:1;fill-rule:evenodd;stroke:#000000;stroke-width:1.02047241;stroke-linejoin:round;stroke-miterlimit:4;stroke-dasharray:none;stroke-opacity:1" />
      <path
         transform="scale(0.26458333)"
         inkscape:connector-curvature="0"
         id="path196"
         d="m 565.57615,270.53355 c -0.0269,-0.10088 -0.0399,-0.19252 -0.0287,-0.20364 0.0111,-0.0111 0.078,0.0384 0.1487,0.11009 l 0.12848,0.13032 -0.0997,0.0733 c -0.0982,0.0722 -0.10047,0.0706 -0.14869,-0.1101 z"
         style="opacity:1;fill:#808080;fill-opacity:1;fill-rule:evenodd;stroke:#000000;stroke-width:1.02047241;stroke-linejoin:round;stroke-miterlimit:4;stroke-dasharray:none;stroke-opacity:1" />
    </g>
  </g>
</svg>
